<?xml version="1.0" encoding="UTF-8"?>
<svg id="Capa_2" data-name="Capa 2" xmlns="http://www.w3.org/2000/svg" viewBox="0 0 447.23 124.8">
  <defs>
    <style>
      .cls-1 {
        fill: #f5565c;
      }
    </style>
  </defs>
  <g id="Capa_2-2" data-name="Capa 2">
    <g>
      <polygon class="cls-1" points="62 103.28 4.72 79.55 12.18 61.55 69.46 85.27 25.62 41.43 39.39 27.66 83.24 71.5 59.51 14.21 77.51 6.76 101.24 64.04 101.24 2.04 120.72 2.04 120.78 122.76 0 122.76 0 103.28 62 103.28"/>
      <polygon class="cls-1" points="195.88 69.46 172.16 12.18 190.16 4.72 213.88 62 213.88 0 233.37 0 233.37 62 257.1 4.72 275.1 12.18 251.37 69.46 295.21 25.62 308.99 39.39 223.67 124.8 138.26 39.4 152.04 25.62 195.88 69.46"/>
      <polygon class="cls-1" points="385.23 21.52 442.51 45.25 435.05 63.25 377.77 39.52 421.61 83.37 407.83 97.14 363.99 53.3 387.72 110.58 369.72 118.04 345.99 60.76 345.99 122.76 326.5 122.76 326.45 2.04 447.23 2.04 447.23 21.52 385.23 21.52"/>
    </g>
  </g>
</svg>