<?xml version="1.0" standalone="no"?>
<!DOCTYPE svg PUBLIC "-//W3C//DTD SVG 20010904//EN"
 "http://www.w3.org/TR/2001/REC-SVG-20010904/DTD/svg10.dtd">
<svg version="1.0" xmlns="http://www.w3.org/2000/svg"
 width="567.000000pt" height="567.000000pt" viewBox="0 0 567.000000 567.000000"
 preserveAspectRatio="xMidYMid meet">

<g transform="translate(0.000000,567.000000) scale(0.100000,-0.100000)"
fill="#000000" stroke="none">
<path d="M1570 2830 l0 -1270 1275 0 1275 0 0 200 0 200 -652 0 c-389 0 -648
4 -643 9 9 8 156 70 898 377 158 65 287 123 287 129 0 5 -33 90 -72 188 -64
156 -75 177 -93 173 -11 -2 -117 -44 -235 -94 -295 -123 -922 -383 -940 -389
-8 -3 192 202 445 456 l460 461 -145 145 -145 145 -458 -457 c-279 -278 -456
-448 -452 -433 7 23 133 328 381 924 57 137 103 251 101 253 -9 8 -370 153
-374 149 -4 -4 -113 -263 -246 -586 -160 -388 -238 -573 -246 -588 -7 -11 -10
197 -11 631 l0 647 -205 0 -205 0 0 -1270z"/>
</g>
</svg>
